<?xml version="1.0" encoding="utf-8"?>
<!-- Generator: Adobe Illustrator 22.1.0, SVG Export Plug-In . SVG Version: 6.00 Build 0)  -->
<svg version="1.1" id="Capa_1" focusable="false" xmlns="http://www.w3.org/2000/svg" xmlns:xlink="http://www.w3.org/1999/xlink"
	 x="0px" y="0px" viewBox="0 0 25 25" style="enable-background:new 0 0 25 25;" xml:space="preserve">
<style type="text/css">
	.st0{fill:#FFFFFF;}
</style>
<path class="st0" d="M12.5,9.7c-1.5,0-2.8,1.2-2.8,2.8s1.2,2.8,2.8,2.8s2.8-1.2,2.8-2.8C15.3,11,14,9.7,12.5,9.7z M19,7.6
	c-0.3-0.7-0.9-1.3-1.6-1.6c-1.1-0.4-3.7-0.3-4.9-0.3S8.7,5.6,7.6,6C6.9,6.3,6.3,6.9,6,7.6c-0.4,1.1-0.3,3.7-0.3,4.9
	c0,1.2-0.1,3.8,0.3,4.9c0.3,0.7,0.9,1.3,1.6,1.6c1.1,0.4,3.7,0.3,4.9,0.3s3.8,0.1,4.9-0.3c0.7-0.3,1.3-0.9,1.6-1.6
	c0.4-1.1,0.3-3.7,0.3-4.9S19.4,8.7,19,7.6L19,7.6z M12.5,16.8c-2.4,0-4.3-1.9-4.3-4.3s1.9-4.3,4.3-4.3s4.3,1.9,4.3,4.3
	C16.8,14.8,14.9,16.8,12.5,16.8C12.5,16.8,12.5,16.8,12.5,16.8z M16.9,9.1c-0.6,0-1-0.4-1-1s0.4-1,1-1c0.6,0,1,0.4,1,1l0,0
	C17.9,8.6,17.5,9.1,16.9,9.1C16.9,9.1,16.9,9.1,16.9,9.1L16.9,9.1z M21.6,0.9H3.4C2,0.9,0.9,2,0.9,3.4v18.3c0,1.4,1.1,2.5,2.5,2.5
	h18.3c1.4,0,2.5-1.1,2.5-2.5V3.4C24.1,2,23,0.9,21.6,0.9z M20.8,15.9c-0.1,1.3-0.4,2.5-1.3,3.5c-1,1-2.2,1.3-3.5,1.3
	c-1.4,0.1-5.5,0.1-6.9,0c-1.3-0.1-2.5-0.4-3.5-1.3c-1-1-1.3-2.2-1.3-3.5c-0.1-1.4-0.1-5.5,0-6.9c0.1-1.3,0.4-2.5,1.3-3.5
	s2.2-1.3,3.5-1.3c1.4-0.1,5.5-0.1,6.9,0c1.3,0.1,2.5,0.4,3.5,1.3c1,1,1.3,2.2,1.3,3.5C20.8,10.4,20.8,14.6,20.8,15.9z"/>
</svg>
