<?xml version="1.0" encoding="utf-8"?>
<!-- Generator: Adobe Illustrator 22.1.0, SVG Export Plug-In . SVG Version: 6.00 Build 0)  -->
<svg version="1.1" id="Capa_1" focusable="false" xmlns="http://www.w3.org/2000/svg" xmlns:xlink="http://www.w3.org/1999/xlink"
	 x="0px" y="0px" viewBox="0 0 448 512" style="enable-background:new 0 0 448 512;" xml:space="preserve">
<style type="text/css">
	.st0{fill:#FFFFFF;}
</style>
<path class="st0" d="M410.8,291.2l36.8-161.8c2.7-11.7-6.2-22.8-18.2-22.8H123.8l-7.1-34.9c-1.8-8.7-9.4-14.9-18.3-14.9H18.7
	C8.4,56.9,0,65.2,0,75.6V88c0,10.3,8.4,18.7,18.7,18.7H73l54.6,267.1c-13.1,7.5-21.9,21.6-21.9,37.8c0,24.1,19.5,43.6,43.6,43.6
	s43.6-19.5,43.6-43.6c0-12.2-5-23.2-13.1-31.1h163.1c-8.1,7.9-13.1,18.9-13.1,31.1c0,24.1,19.5,43.6,43.6,43.6
	c24.1,0,43.6-19.5,43.6-43.6c0-17.2-10-32.1-24.6-39.2l4.3-18.9c2.7-11.7-6.2-22.8-18.2-22.8H169.6l-5.1-24.9h228
	C401.3,305.8,408.8,299.7,410.8,291.2z"/>
</svg>
