<?xml version="1.0" encoding="utf-8"?>
<!-- Generator: Adobe Illustrator 22.1.0, SVG Export Plug-In . SVG Version: 6.00 Build 0)  -->
<svg version="1.1" id="Capa_1" focusable="false" xmlns="http://www.w3.org/2000/svg" xmlns:xlink="http://www.w3.org/1999/xlink"
	 x="0px" y="0px" viewBox="0 0 448 512" style="enable-background:new 0 0 448 512;" xml:space="preserve">
<style type="text/css">
	.st0{fill:#FFFFFF;}
</style>
<path class="st0" d="M225,37.3c-124.2,0-225,100.8-225,225s100.8,225,225,225s225-100.8,225-225S349.2,37.3,225,37.3z M316.3,368.3
	c-3.8,0-6.2-1.2-9.7-3.3C250,331,184.2,329.5,119.1,342.9c-3.5,0.9-8.2,2.4-10.8,2.4c-8.8,0-14.3-7-14.3-14.3
	c0-9.3,5.5-13.8,12.3-15.2c74.3-16.4,150.2-15,215,23.8c5.5,3.5,8.8,6.7,8.8,15S323.7,368.3,316.3,368.3L316.3,368.3z M340.7,308.8
	c-4.7,0-7.9-2.1-11.2-3.8c-56.7-33.6-141.2-47.1-216.5-26.7c-4.4,1.2-6.7,2.4-10.8,2.4c-9.7,0-17.6-7.9-17.6-17.6
	c0-9.7,4.7-16.1,14.1-18.8c25.2-7.1,51-12.3,88.7-12.3c58.9,0,115.8,14.6,160.6,41.3c7.3,4.4,10.3,10,10.3,17.9
	C358.2,300.9,350.6,308.8,340.7,308.8z M368.9,239.7c-4.7,0-7.6-1.2-11.7-3.5c-64.6-38.6-180.1-47.8-254.8-26.9
	c-3.3,0.9-7.3,2.4-11.7,2.4c-12,0-21.1-9.3-21.1-21.4c0-12.3,7.6-19.3,15.8-21.7c31.9-9.3,67.7-13.8,106.6-13.8
	c66.2,0,135.6,13.8,186.3,43.4c7.1,4.1,11.7,9.7,11.7,20.5C389.9,230.9,379.9,239.7,368.9,239.7L368.9,239.7z"/>
</svg>
